<svg width="20" height="20" viewBox="0 0 20 20" fill="none" xmlns="http://www.w3.org/2000/svg">
<path d="M7.49993 9.9999C7.49993 8.6216 8.6216 7.49993 9.9999 7.49993H13.3332V0.833312C13.3332 0.373317 12.9607 0 12.4999 0H0.833312C0.372496 0 0 0.373317 0 0.833312V19.1665C0 19.6264 0.372496 19.9998 0.833312 19.9998H12.4999C12.9607 19.9998 13.3332 19.6264 13.3332 19.1665V13.3332V12.4999H9.9999C8.6216 12.4999 7.49993 11.3782 7.49993 9.9999Z" fill="white"/>
<path d="M19.8118 10.5264C19.8143 10.5233 19.8164 10.5199 19.8189 10.5168C19.8332 10.4988 19.847 10.4804 19.8598 10.4612C19.8658 10.4522 19.8709 10.4428 19.8765 10.4336C19.885 10.4198 19.8936 10.4062 19.9012 10.3919C19.9075 10.3801 19.9128 10.368 19.9185 10.3561C19.9243 10.3437 19.9305 10.3315 19.9358 10.3188C19.9415 10.3051 19.9461 10.2912 19.951 10.2773C19.955 10.2658 19.9595 10.2545 19.9631 10.2427C19.968 10.2264 19.9718 10.2099 19.9758 10.1933C19.9781 10.1837 19.9809 10.1742 19.9829 10.1644C19.9874 10.1417 19.9906 10.1188 19.9933 10.0959C19.9938 10.0919 19.9946 10.0881 19.995 10.0841C20.0006 10.0281 20.0006 9.97163 19.995 9.91562C19.9946 9.91163 19.9937 9.9078 19.9933 9.90386C19.9906 9.88093 19.9874 9.85808 19.9829 9.83538C19.9809 9.82558 19.9781 9.81608 19.9758 9.8064C19.9718 9.78987 19.968 9.77331 19.9631 9.75702C19.9595 9.74527 19.955 9.73394 19.951 9.72241C19.946 9.70855 19.9415 9.69456 19.9358 9.68093C19.9305 9.66823 19.9243 9.65605 19.9185 9.64366C19.9128 9.63171 19.9075 9.61964 19.9012 9.60788C19.8936 9.59359 19.885 9.57991 19.8765 9.56613C19.8709 9.55695 19.8658 9.54757 19.8598 9.53859C19.847 9.51937 19.8332 9.50097 19.8189 9.48292C19.8164 9.4798 19.8143 9.47652 19.8118 9.47339C19.793 9.45039 19.7731 9.42843 19.752 9.40757L16.4218 6.07737C16.0959 5.75155 15.5693 5.75155 15.2435 6.07737C14.9176 6.40319 14.9176 6.92986 15.2435 7.25568L17.1543 9.16648H9.99933C9.53851 9.16648 9.16602 9.5398 9.16602 9.99979C9.16602 10.4598 9.53851 10.8331 9.99933 10.8331H17.1543L15.2435 12.7439C14.9176 13.0697 14.9176 13.5964 15.2435 13.9222C15.406 14.0847 15.6193 14.1664 15.8326 14.1664C16.0459 14.1664 16.2593 14.0847 16.4218 13.9222L19.752 10.592C19.773 10.5713 19.793 10.5494 19.8118 10.5264Z" fill="white"/>
</svg>
