<svg width="18" height="18" viewBox="0 0 18 18" fill="none" xmlns="http://www.w3.org/2000/svg">
<g clip-path="url(#clip0)">
<path d="M8.99949 1.5C9.15324 1.5 9.30024 1.563 9.40599 1.674L13.3435 5.799C13.6847 6.156 13.4312 6.75 12.937 6.75L10.8745 6.75L10.8745 11.0625C10.8745 11.5793 10.4537 12 9.93699 12L8.06199 12C7.54524 12 7.12449 11.5793 7.12449 11.0625L7.12449 6.75L5.06199 6.75C4.56774 6.75 4.31424 6.156 4.65549 5.799L8.59299 1.674C8.69874 1.563 8.84574 1.5 8.99949 1.5Z" fill="#3744BD"/>
<path d="M16.6875 16.5H1.3125C0.58875 16.5 0 15.9112 0 15.1875V14.8125C0 14.0887 0.58875 13.5 1.3125 13.5H16.6875C17.4112 13.5 18 14.0887 18 14.8125V15.1875C18 15.9112 17.4112 16.5 16.6875 16.5Z" fill="#3744BD"/>
</g>
<defs>
<clipPath id="clip0">
<rect width="18" height="18" fill="white"/>
</clipPath>
</defs>
</svg>
